# xmcd CD database file
#
# Track frame offsets:
#	150
#	8212
#	29866
#	60825
#	77711
#	97212
#	101651
#	127904
#	148765
#	160040
#	184063
#	196247
#	225444
#	247114
#
# Disc length: 3502 seconds
#
# Revision: 0
# Processed by: cddbd v1.5.2PL0 Copyright (c) Steve Scherf et al.
# Submitted via: CDex 1.51
#
DISCID=b70dac0e
DTITLE=ROCK CANDY FUNK PARTY - The Grooove 3
DYEAR=2017
DGENRE=Jazz
TTITLE0=Gothic Orleans
TTITLE1=Drunk On Bourbon On Bourbon Street
TTITLE2=In The Grooove
TTITLE3=Don't Even Try It
TTITLE4=Two Guys And Stanley Kubrick Walk Into A Jazz Club
TTITLE5=Isle Of The Wright Brothers
TTITLE6=Mr. Space
TTITLE7=I Got the Feelin'
TTITLE8=After Hours
TTITLE9=This Tune Should Run For President
TTITLE10=Mr. Funkadamus Returns And He Is Mad
TTITLE11=Funk-O-Potamia
TTITLE12=The Token Ballad
TTITLE13=Ping Pong
EXTD=YEAR: 2017
EXTT0=
EXTT1=
EXTT2=
EXTT3=
EXTT4=
EXTT5=
EXTT6=
EXTT7=
EXTT8=
EXTT9=
EXTT10=
EXTT11=
EXTT12=
EXTT13=
PLAYORDER=
